# xmcd CD database file generated with xsadp 2.2.1
#
# Track frame offsets:
#       183
#       17185
#       28655
#       39860
#       49963
#       60160
#       73703
#       83255
#       96483
#       108998
#       123638
#       133945
#       146963
#       162968
#       179038
#
# Disc length: 2525 seconds
#
# Revision: 5
# Processed by: cddbd v1.4b41PL1 Copyright (c) Steve Scherf et al.
# Submitted via: xsadp 2.2.1 - (C) 1998,1999 Michael Glickman 
#     sadp site: http://www.alphalink.com.au/~michg/ace/sadp
#
DISCID=d509db0f
DTITLE=Various country singers/Best of Country, Volume 3
DYEAR=1900
DGENRE=
TTITLE0=Today I Started Loving you again-Merle Hagard
TTITLE1=Crazy dreams-Pasty Cline
TTITLE2=It's only make-beleive-Conway Twitty
TTITLE3=I'm Sorry-Brenda Lee
TTITLE4=Broken Promises-Willie Nelson
TTITLE5=Cold Cold Heart-George Jones
TTITLE6=Kiss an angel good morning-Charlie Pride
TTITLE7=There's old moon shining on a new love tonight-Mark Mozingo
TTITLE8=Pick me up on your way there-The Kendalls
TTITLE9=Coal Miner's Daughter-Lorretta Lynn
TTITLE10=How can I face tomorrow-Pasty Cline
TTITLE11=Just someone I used to know-Nancy Peppers and Mark Mozingo
TTITLE12=Jonny one time-Brenda Lee
TTITLE13=Give it up-Wylie West Show
TTITLE14=Love sick blues-Pasty Cline
EXTD=
EXTT0=
EXTT1=
EXTT2=
EXTT3=
EXTT4=
EXTT5=
EXTT6=
EXTT7=
EXTT8=
EXTT9=
EXTT10=
EXTT11=
EXTT12=
EXTT13=
EXTT14=
PLAYORDER=
